name GIL11_slow_grf.mot																		
datacolumns 19																		
datarows 83																		
range 0.26666653 0.94999987																		
endheader																		
																		
                time	     ground_force_vx	     ground_force_vy	     ground_force_vz	     ground_force_px	     ground_force_py	     ground_force_pz	     1_ground_force_vx	     1_ground_force_vy	    1_ground_force_vz	     1_ground_force_px	     1_ground_force_py	     1_ground_force_pz	     ground_torque_x	     ground_torque_y	     ground_torque_z	     1_ground_torque_x	     1_ground_torque_y	     1_ground_torque_z
0.26666653	0	0	0	1.8854436	0	0.0474281	-44.91979481	579.5065921	29.27472008	1.50069739	0	-0.06195505	0	0	0	0	0.44039587	0
0.27499989	0	0	0	1.88753369	0	0.04742053	-43.937534	579.608868	29.79890673	1.50266943	0	-0.0626889	0	0	0	0	0.49661279	0
0.28333321	0	0	0	1.88980249	0	0.04746263	-42.54202295	580.3343922	30.39883269	1.50477856	0	-0.06344214	0	0	0	0	0.56225793	0
0.29166654	0	0	0	1.89218286	0	0.04752393	-40.82786899	581.6333748	30.96391448	1.50674878	0	-0.06411194	0	0	0	0	0.61744995	0
0.29999986	0	0	0	1.89460498	0	0.04758188	-38.90897018	583.473883	31.41253533	1.50849341	0	-0.06467929	0	0	0	0	0.65171838	0
0.30833322	0	0	0	1.89705933	0	0.04763655	-36.87637764	585.990914	31.67617335	1.5100022	0	-0.06513828	0	0	0	0	0.6635929	0
0.31666654	0	0	0	1.89954297	0	0.04770569	-34.73590054	589.2655958	31.71232828	1.511276	0	-0.06549063	0	0	0	0	0.65069714	0
0.32499987	0	0	0	1.90204053	0	0.04778577	-32.42085534	593.0366109	31.4870982	1.51234973	0	-0.06574506	0	0	0	0	0.60695068	0
0.33333319	0	0	0	1.9045354	0	0.04786063	-29.87055642	596.6505694	31.00191345	1.51332739	0	-0.06594562	0	0	0	0	0.53148877	0
0.34166655	0	0	0	1.90700854	0	0.04792732	-27.06747528	599.3933361	30.35759999	1.5143324	0	-0.06614972	0	0	0	0	0.43304395	0
0.34999987	0	0	0	1.9094502	0	0.04798013	-24.07868064	600.8302304	29.74047821	1.51546436	0	-0.06638596	0	0	0	0	0.32385107	0
0.3583332	0	0	0	1.91187451	0	0.04801849	-21.0613548	600.8754394	29.35676199	1.51680237	0	-0.0666553	0	0	0	0	0.21506982	0
0.36666656	0	0	0	1.91431396	0	0.04806531	-18.20907655	599.5868334	29.34455674	1.51840405	0	-0.06694775	0	0	0	0	0.11763159	0
0.37499988	0	0	0	1.91681396	0	0.04813077	-15.71517751	597.0876457	29.69237088	1.52029712	0	-0.06724304	0	0	0	0	0.03348535	0
0.38333321	0	0	0	1.91942505	0	0.04821701	-13.70612586	593.55646	30.26961097	1.52247949	0	-0.06750604	0	0	0	0	-0.04276343	0
0.39166653	0	0	0	1.92213892	0	0.04834027	-12.19865841	589.4658999	30.87098227	1.52489661	0	-0.06769086	0	0	0	0	-0.12222949	0
0.39999986	0	0	0	1.92487891	0	0.04851486	-11.08205859	585.7193227	31.2487086	1.52739453	0	-0.06775818	0	0	0	0	-0.21428687	0
0.40833321	0	0	0	1.92758154	0	0.04873289	-10.1697697	583.0391629	31.20615277	1.52981091	0	-0.06767694	0	0	0	0	-0.32221948	0
0.41666654	0	0	0	1.9302605	0	0.04898993	-9.31652062	581.6202131	30.6945366	1.53208765	0	-0.06744492	0	0	0	0	-0.44298584	0
0.42499989	0	0	0	1.93297534	0	0.04928195	-8.49707993	581.3602433	29.75186882	1.53423792	0	-0.06710568	0	0	0	0	-0.57702661	0
0.43333322	0	0	0	1.93574609	0	0.04959737	-7.75619955	582.1803347	28.48770768	1.53630408	0	-0.06671088	0	0	0	0	-0.72440918	0
0.44166654	0	0	0	1.93855371	0	0.04993532	-7.10039322	583.9453256	27.06108819	1.53833655	0	-0.06630914	0	0	0	0	-0.87693701	0
0.44999987	0	0	0	1.94135034	0	0.05029657	-6.43647334	586.3235551	25.64493054	1.54038953	0	-0.06595877	0	0	0	0	-1.02281958	0
0.45833319	0	0	0	1.94407837	0	0.05066547	-5.62859103	588.8839344	24.39269766	1.54251697	0	-0.06570468	0	0	0	0	-1.14857446	0
0.46666652	0	0	0	1.94670898	0	0.05101758	-4.62691107	591.1622969	23.44367643	1.54477368	0	-0.06558163	0	0	0	0	-1.24119946	0
0.47499987	0	0	0	1.94927441	0	0.05135251	-3.49532468	592.8072376	22.89915256	1.54720679	0	-0.06559583	0	0	0	0	-1.29438428	0
0.4833332	0	0	0	1.95180884	0	0.05168445	-2.36426977	593.8440133	22.74738061	1.54979932	0	-0.0657352	0	0	0	0	-1.31586011	0
0.49166656	0	0	0	1.95431787	0	0.05201335	-1.32961541	594.4794239	22.84750883	1.55250916	0	-0.06598029	0	0	0	0	-1.3257854	0
0.49999988	0	0	0	1.95678687	0	0.05233389	-0.38298014	594.9622132	23.04580866	1.55530786	0	-0.06630783	0	0	0	0	-1.33468604	0
0.50833321	0	0	0	1.9591897	0	0.0526396	0.57347348	595.4559082	23.25413716	1.55816638	0	-0.06669742	0	0	0	0	-1.34035376	0
0.51666653	0	0	0	1.96151758	0	0.05293137	1.65012998	595.8676384	23.46105205	1.56106421	0	-0.06713547	0	0	0	0	-1.34074146	0
0.52499986	0	0	0	1.96379614	0	0.05322562	2.90268128	596.0437467	23.70366158	1.56397888	0	-0.06760391	0	0	0	0	-1.33900781	0
0.53333318	0	0	0	1.9660459	0	0.0535513	4.30178609	595.7892336	24.03915313	1.5669093	0	-0.06811102	0	0	0	0	-1.33804224	0
0.54166651	0	0	0	1.96822949	0	0.05391107	5.81233493	595.0189854	24.51043904	1.56984375	0	-0.0686554	0	0	0	0	-1.3414751	0
0.54999983	0	0	0	1.97028564	0	0.05427859	7.43151557	593.8187086	25.11864758	1.57275159	0	-0.0692312	0	0	0	0	-1.35467554	0
0.55833322	0	0	0	1.97219604	0	0.05461426	9.16469549	592.345711	25.81511863	1.57560315	0	-0.06981689	0	0	0	0	-1.37928003	0
0.56666654	0	0	0	1.97396875	0	0.05488715	10.97905246	590.78181	26.54774825	1.57837061	0	-0.07039551	0	0	0	0	-1.41377124	0
0.57499987	0	0	0	1.97561719	0	0.05508771	12.83853595	589.3409135	27.27630856	1.58103137	0	-0.07095581	0	0	0	0	-1.45247266	0
0.58333319	0	0	0	1.97713281	0	0.05521814	14.76011279	588.248977	27.96554142	1.5835625	0	-0.07149414	0	0	0	0	-1.49596875	0
0.59166658	0	0	0	1.97850293	0	0.05528127	16.78847655	587.7176316	28.61427395	1.5859447	0	-0.0719939	0	0	0	0	-1.54264844	0
0.5999999	0	0	0	1.97973291	0	0.05525177	18.90149559	587.8459457	29.23390005	1.58817798	0	-0.07244955	0	0	0	0	-1.58984326	0
0.60833323	0	0	0	1.98086841	0	0.0551286	21.04602739	588.6757402	29.80156854	1.59025317	0	-0.07285251	0	0	0	0	-1.64473193	0
0.61666656	0	0	0	1.98197095	0	0.05496622	23.21493472	590.2496219	30.29193288	1.59216162	0	-0.07319547	0	0	0	0	-1.70605127	0
0.62499988	0	0	0	1.98306812	0	0.05481064	25.40884319	592.5927341	30.68242332	1.59390942	0	-0.07348495	0	0	0	0	-1.77070459	0
0.63333321	0	0	0	1.98415771	0	0.05468665	27.63314917	595.7359354	30.95739718	1.59550806	0	-0.07373193	0	0	0	0	-1.83933838	0
0.64166653	0	0	0	1.98523682	0	0.05457812	29.93793216	599.697429	31.13644302	1.5969447	0	-0.0739494	0	0	0	0	-1.90624463	0
0.64999986	0	0	0	1.98630249	0	0.05446967	32.46151436	604.3828368	31.36951716	1.59819495	0	-0.07414709	0	0	0	0	-1.941604	0
0.65833318	0	0	0	1.98737671	0	0.05438295	35.33560908	609.6263284	31.89731885	1.5992522	0	-0.0743559	0	0	0	0	-1.90209131	0
0.66666651	0	0	0	1.98849561	0	0.05435413	38.53413383	615.3359019	32.79665752	1.60010889	0	-0.07458319	0	0	0	0	-1.76900488	0
0.67499983	0	0	0	1.98968188	0	0.05442928	41.80479252	621.3846855	33.46133261	1.60076294	0	-0.07480576	0	0	0	0	-1.62132666	0
0.68333322	0	0	0	1.99093896	0	0.05464822	45.01223544	627.3661017	33.22384686	1.60127063	0	-0.07500531	0	0	0	0	-1.58082764	0
0.69166654	0	0	0	1.99225171	0	0.05500708	48.41252104	632.8728505	32.36016035	1.60169873	0	-0.07519315	0	0	0	0	-1.64163574	0
0.69999987	0	0	0	1.99364966	0	0.0554805	52.14931341	637.7746702	31.25156573	1.60208691	0	-0.0753837	0	0	0	0	-1.74502051	0
0.70833319	0	0	0	1.99518335	0	0.05601895	56.11731896	642.1082397	30.25961753	1.60243762	0	-0.07558658	0	0	0	0	-1.84468652	0
0.71666658	0	0	0	1.99688818	0	0.05656789	60.12021514	645.7313956	29.63444005	1.60276306	0	-0.07581647	0	0	0	0	-1.91731006	0
0.7249999	0	0	0	1.99876318	0	0.05709344	64.15987157	648.2598238	29.41696381	1.60308704	0	-0.07607983	0	0	0	0	-1.95479736	0
0.73333323	0	0	0	2.00087354	0	0.05762045	68.28623392	649.3613363	29.57234804	1.60341895	0	-0.07638223	0	0	0	0	-1.95628223	0
0.74166656	0	0	0	2.00349951	0	0.05825299	72.44507447	648.9742622	30.04203775	1.60374585	0	-0.07672592	0	0	0	0	-1.91963721	0
0.74999988	0	0	0	2.00689624	0	0.05907738	76.58019425	647.1844955	30.74811744	1.60406372	0	-0.07709943	0	0	0	0	-1.84631396	0
0.75833321	0	0	0	2.01101123	0	0.06008763	80.66994636	643.9148675	31.60688986	1.60439697	0	-0.07750647	0	0	0	0	-1.73415283	0
0.76666653	0	0	0	2.01580029	0	0.06137114	84.70885749	639.0214472	32.52132215	1.6047511	0	-0.07794858	0	0	0	0	-1.58966699	0
0.77499986	0	0	0	2.02088098	0	0.06287094	88.67025645	632.4836661	33.42626865	1.6051084	0	-0.07841641	0	0	0	0	-1.42453809	0
0.78333318	0	0	0	2.02527966	0	0.06414682	92.47837508	624.1889554	34.23170709	1.60548608	0	-0.07888733	0	0	0	0	-1.25339697	0
0.79166657	1.33955172	46.90360524	3.12207293	2.02857507	0	0.06489734	95.97982911	613.7234422	34.7936497	1.60593994	0	-0.07933542	0	0.04778595	0	0	-1.085396	0
0.79999989	-0.45146192	121.7956406	8.35443046	2.03103394	0	0.06522345	98.85510549	600.3746134	34.86695952	1.60651733	0	-0.07971033	0	0.13635077	0	0	-0.93105127	0
0.80833322	-7.63265834	197.7245855	14.3590243	2.032922	0	0.06530666	100.6747521	583.1536855	34.07893039	1.60727808	0	-0.07995084	0	0.23916034	0	0	-0.80127197	0
0.81666654	-20.68149261	243.5110232	18.08511771	2.03491541	0	0.06543678	101.2196092	561.2260984	32.16363785	1.60830432	0	-0.08002362	0	0.31013135	0	0	-0.70086523	0
0.82499987	-34.89191164	271.4497397	18.81365974	2.03753235	0	0.06583725	100.6094402	534.7951866	29.13353755	1.60962524	0	-0.07992334	0	0.34643665	0	0	-0.64543506	0
0.83333319	-44.24431481	295.8401744	17.11576949	2.04106128	0	0.06670689	98.95567421	504.9396557	25.31310309	1.61118652	0	-0.07967645	0	0.38497772	0	0	-0.63562842	0
0.84166652	-47.84803949	324.9582596	13.10194479	2.04568311	0	0.06807367	96.55070327	472.4874326	21.24229163	1.6128877	0	-0.07931387	0	0.51198187	0	0	-0.6356875	0
0.84999985	-51.95932689	357.6794421	6.3910516	2.05077637	0	0.0695545	93.70286216	437.8460526	17.3504502	1.61464893	0	-0.0788277	0	0.78387158	0	0	-0.61463159	0
0.85833323	-60.58654953	385.8975126	-1.72626913	2.05542188	0	0.07076788	90.25752536	401.3131382	13.8750425	1.61643066	0	-0.07821402	0	1.13025244	0	0	-0.55739819	0
0.86666656	-69.46945365	406.8672428	-9.32373225	2.05938477	0	0.07173424	85.81134949	362.9618585	10.81899624	1.61817712	0	-0.07748737	0	1.36877698	0	0	-0.46532593	0
0.87499988	-74.05761197	422.6373082	-15.09454305	2.06260645	0	0.0725157	79.89138577	322.63673	8.0188537	1.61978088	0	-0.07663904	0	1.33383057	0	0	-0.35307629	0
0.88333321	-74.8209006	433.9326294	-18.43598948	2.06508691	0	0.07311333	71.8672548	280.3241024	5.29287027	1.62115027	0	-0.07563983	0	1.04216724	0	0	-0.2347002	0
0.89166653	-73.73707478	442.6477555	-20.43491422	2.06712866	0	0.07363376	61.72689802	236.1824698	2.59162762	1.62231567	0	-0.07452237	0	0.66533038	0	0	-0.11846011	0
0.89999986	-71.86387698	451.5436155	-22.50109191	2.06896533	0	0.07416504	50.77904323	190.6545701	0.19127864	1.62339111	0	-0.07339563	0	0.35277481	0	0	-0.01767719	0
0.90833318	-69.9885459	461.0769951	-25.01624666	2.07063184	0	0.07471591	39.86086495	146.0265007	-1.55960224	1.62457617	0	-0.07240662	0	0.1430412	0	0	0.0513494	0
0.91666657	-68.61994637	470.3554038	-27.66994779	2.07213086	0	0.07524466	29.18717201	105.8304941	-2.42930157	1.62646118	0	-0.07186783	0	0.00156696	0	0	0.08385522	0
0.92499989	-67.72030588	478.837101	-30.00614914	2.07350562	0	0.0756962	19.24068403	73.32043388	-2.39486658	1.62991785	0	-0.07219043	0	-0.10523541	0	0	0.08237033	0
0.93333322	-67.07214139	486.5189607	-31.64959824	2.07480542	0	0.07602557	10.7251262	50.24413119	-1.67942517	1.63520691	0	-0.07364288	0	-0.18552905	0	0	0.0502478	0
0.94166654	-66.45298914	493.7360552	-32.39328092	2.0760481	0	0.07621149	4.19489711	35.85398253	-0.67431575	1.64121826	0	-0.07593921	0	-0.23501843	0	0	0.00357246	0
0.94999987	-65.5773808	500.6989197	-32.23186222	2.07721826	0	0.07625887	-0.05097187	27.2404885	0.1728451	1.6464939	0	-0.07822241	0	-0.25705096	0	0	-0.03434093	0
